<?xml version="1.0" encoding="UTF-8" standalone="no"?>
<!DOCTYPE svg PUBLIC "-//W3C//DTD SVG 1.1//EN"
 "http://www.w3.org/Graphics/SVG/1.1/DTD/svg11.dtd">
<!-- Generated by graphviz version 7.0.2 (0)
 -->
<!-- Title: sample Pages: 1 -->
<svg width="413pt" height="206pt"
 viewBox="0.00 0.00 412.58 206.00" xmlns="http://www.w3.org/2000/svg" xmlns:xlink="http://www.w3.org/1999/xlink">
<g id="graph0" class="graph" transform="scale(1 1) rotate(0) translate(4 202)">
<title>sample</title>
<polygon fill="white" stroke="none" points="-4,4 -4,-202 408.58,-202 408.58,4 -4,4"/>
<!-- Node0 -->
<g id="node1" class="node">
<title>Node0</title>
<ellipse fill="none" stroke="black" cx="34.45" cy="-99" rx="34.39" ry="18"/>
<text text-anchor="middle" x="34.45" y="-95.3" font-family="Times,serif" font-size="14.00">Node0</text>
</g>
<!-- Node2 -->
<g id="node2" class="node">
<title>Node2</title>
<ellipse fill="none" stroke="black" cx="146.34" cy="-126" rx="34.39" ry="18"/>
<text text-anchor="middle" x="146.34" y="-122.3" font-family="Times,serif" font-size="14.00">Node2</text>
</g>
<!-- Node0&#45;&#45;Node2 -->
<g id="edge1" class="edge">
<title>Node0&#45;&#45;Node2</title>
<path fill="none" stroke="black" d="M66.06,-106.52C81.17,-110.23 99.37,-114.7 114.51,-118.43"/>
<text text-anchor="middle" x="90.39" y="-116.8" font-family="Times,serif" font-size="14.00">5</text>
</g>
<!-- Node1 -->
<g id="node3" class="node">
<title>Node1</title>
<ellipse fill="none" stroke="black" cx="146.34" cy="-180" rx="34.39" ry="18"/>
<text text-anchor="middle" x="146.34" y="-176.3" font-family="Times,serif" font-size="14.00">Node1</text>
</g>
<!-- Node0&#45;&#45;Node1 -->
<g id="edge2" class="edge">
<title>Node0&#45;&#45;Node1</title>
<path fill="none" stroke="black" d="M55.35,-113.67C75.26,-128.35 105.72,-150.8 125.59,-165.44"/>
<text text-anchor="middle" x="90.39" y="-144.8" font-family="Times,serif" font-size="14.00">3</text>
</g>
<!-- Node3 -->
<g id="node4" class="node">
<title>Node3</title>
<ellipse fill="none" stroke="black" cx="146.34" cy="-72" rx="34.39" ry="18"/>
<text text-anchor="middle" x="146.34" y="-68.3" font-family="Times,serif" font-size="14.00">Node3</text>
</g>
<!-- Node0&#45;&#45;Node3 -->
<g id="edge3" class="edge">
<title>Node0&#45;&#45;Node3</title>
<path fill="none" stroke="black" d="M66.06,-91.48C81.17,-87.77 99.37,-83.3 114.51,-79.57"/>
<text text-anchor="middle" x="90.39" y="-89.8" font-family="Times,serif" font-size="14.00">2</text>
</g>
<!-- Node4 -->
<g id="node5" class="node">
<title>Node4</title>
<ellipse fill="none" stroke="black" cx="146.34" cy="-18" rx="34.39" ry="18"/>
<text text-anchor="middle" x="146.34" y="-14.3" font-family="Times,serif" font-size="14.00">Node4</text>
</g>
<!-- Node0&#45;&#45;Node4 -->
<g id="edge4" class="edge">
<title>Node0&#45;&#45;Node4</title>
<path fill="none" stroke="black" d="M55.35,-84.33C75.26,-69.65 105.72,-47.2 125.59,-32.56"/>
<text text-anchor="middle" x="90.39" y="-63.8" font-family="Times,serif" font-size="14.00">4</text>
</g>
<!-- Node5 -->
<g id="node6" class="node">
<title>Node5</title>
<ellipse fill="none" stroke="black" cx="258.23" cy="-112" rx="34.39" ry="18"/>
<text text-anchor="middle" x="258.23" y="-108.3" font-family="Times,serif" font-size="14.00">Node5</text>
</g>
<!-- Node2&#45;&#45;Node5 -->
<g id="edge5" class="edge">
<title>Node2&#45;&#45;Node5</title>
<path fill="none" stroke="black" d="M177.04,-117.26C184.11,-115.53 191.66,-113.95 198.79,-113 206.74,-111.94 215.34,-111.44 223.45,-111.26"/>
<text text-anchor="middle" x="202.29" y="-116.8" font-family="Times,serif" font-size="14.00">0</text>
</g>
<!-- Node1&#45;&#45;Node5 -->
<g id="edge6" class="edge">
<title>Node1&#45;&#45;Node5</title>
<path fill="none" stroke="black" d="M169.58,-166.24C188.65,-154.44 215.97,-137.53 235.03,-125.74"/>
<text text-anchor="middle" x="202.29" y="-151.8" font-family="Times,serif" font-size="14.00">1</text>
</g>
<!-- Node6 -->
<g id="node7" class="node">
<title>Node6</title>
<ellipse fill="none" stroke="black" cx="370.13" cy="-146" rx="34.39" ry="18"/>
<text text-anchor="middle" x="370.13" y="-142.3" font-family="Times,serif" font-size="14.00">Node6</text>
</g>
<!-- Node1&#45;&#45;Node6 -->
<g id="edge9" class="edge">
<title>Node1&#45;&#45;Node6</title>
<path fill="none" stroke="black" d="M179.59,-175.06C221.64,-168.61 294.77,-157.4 336.84,-150.95"/>
<text text-anchor="middle" x="258.23" y="-171.8" font-family="Times,serif" font-size="14.00">4</text>
</g>
<!-- Node3&#45;&#45;Node5 -->
<g id="edge7" class="edge">
<title>Node3&#45;&#45;Node5</title>
<path fill="none" stroke="black" d="M175.3,-81.99C184.97,-85.46 195.86,-89.38 205.79,-93 213.48,-95.8 221.81,-98.87 229.48,-101.7"/>
<text text-anchor="middle" x="202.29" y="-96.8" font-family="Times,serif" font-size="14.00">1</text>
</g>
<!-- Node4&#45;&#45;Node5 -->
<g id="edge8" class="edge">
<title>Node4&#45;&#45;Node5</title>
<path fill="none" stroke="black" d="M166.2,-33C170.99,-36.87 176.11,-41.06 180.79,-45 201.32,-62.27 224.42,-82.65 239.8,-96.36"/>
<text text-anchor="middle" x="202.29" y="-67.8" font-family="Times,serif" font-size="14.00">2</text>
</g>
<!-- Node5&#45;&#45;Node6 -->
<g id="edge10" class="edge">
<title>Node5&#45;&#45;Node6</title>
<path fill="none" stroke="black" d="M288.4,-121.02C304.29,-125.94 323.91,-132.01 339.83,-136.94"/>
<text text-anchor="middle" x="314.18" y="-133.8" font-family="Times,serif" font-size="14.00">5</text>
</g>
</g>
</svg>
